<svg xmlns="http://www.w3.org/2000/svg" xmlns:xlink="http://www.w3.org/1999/xlink" viewBox="0 0 108.85 117.13"><defs><style>.cls-1{fill:url(#linear-gradient);}</style><linearGradient id="linear-gradient" x1="-36.99" y1="9.17" x2="82.02" y2="79.65" gradientUnits="userSpaceOnUse"><stop offset="0" stop-color="#0b99ae"/><stop offset="1" stop-color="#204152"/></linearGradient></defs><title>Asset 1</title><g id="Layer_2" data-name="Layer 2"><g id="Layer_1-2" data-name="Layer 1"><path class="cls-1" d="M108.12,54c-.07-.39-.14-.78-.22-1.17A51.83,51.83,0,0,0,93.27,25.88C81.08,13.72,65,8.28,54.49,8.28h-.07c-9.69,0-18.62,3.31-22.28,4.85-2.93-2.82-5.79-6.49-6.48-10.52A3.19,3.19,0,0,0,24.83.88,3,3,0,0,0,20.48,1a28,28,0,0,0-5,23.71C11.6,28.87,0,42.93,0,62.71a54.42,54.42,0,0,0,107.53,11.9c.13-.55.24-1.09.35-1.65a54.06,54.06,0,0,0,1-10.25A51.67,51.67,0,0,0,108.12,54ZM54.43,13.49h.06c9.46,0,24,5,35.11,16.08a47,47,0,0,1,13.22,24.37A29.48,29.48,0,0,1,69.63,76.87c-10.2-1.53-19.54-9.42-23.33-19.33a28.48,28.48,0,0,1,30.29,3.14,25.79,25.79,0,0,1,2.17,1.91,3.52,3.52,0,0,0,3.52.31,2.8,2.8,0,0,0,1.25-1.64v-.2a23.4,23.4,0,0,0-.4-4.38,24.13,24.13,0,0,0-18-19C63.78,32.16,59,24.52,47,21.41A33,33,0,0,1,36.75,16.9,53.56,53.56,0,0,1,54.43,13.49ZM5.2,62.71c0-20.23,13.42-33.84,15-35.32l1.12-1.09-.43-1.49A23.46,23.46,0,0,1,22.08,8.32c1.76,3.73,4.82,7.39,9.13,10.94a37.19,37.19,0,0,0,14.46,7.19c8.77,2.27,12.32,7,13.76,10.49h0V40.2a2.05,2.05,0,0,0,1.88,2,19,19,0,0,1,16,12.51c-.8-.52-1.63-1-2.47-1.44a33.67,33.67,0,0,0-39.61,53.53,30.08,30.08,0,0,0,2.3,2.1A49.31,49.31,0,0,1,5.2,62.71Zm33.65,40.44a28.48,28.48,0,0,1-5-33.4,34.73,34.73,0,0,0,15.36,36.47,34.29,34.29,0,0,0,12.4,4.86C53.8,111.68,45.16,109.46,38.85,103.15Zm35.34,2.56a29.49,29.49,0,0,1-34.25-38.6A34.63,34.63,0,0,0,91.67,94.17,29.24,29.24,0,0,1,74.19,105.71ZM102.5,73.24a29.48,29.48,0,0,1-57.39-6.73,34.22,34.22,0,0,0,29,15.9,34.78,34.78,0,0,0,29.47-16.49A47.62,47.62,0,0,1,102.5,73.24Z"/></g></g></svg>