<svg xmlns="http://www.w3.org/2000/svg" xmlns:xlink="http://www.w3.org/1999/xlink" viewBox="0 0 876.94 442.07"><defs><style>.cls-1,.cls-2,.cls-3{fill:#008c44;}.cls-1{clip-rule:evenodd;}.cls-3{fill-rule:evenodd;}.cls-4{clip-path:url(#clip-path);}.cls-5{clip-path:url(#clip-path-2);}.cls-6{clip-path:url(#clip-path-3);}</style><clipPath id="clip-path" transform="translate(0 0)"><path class="cls-1" d="M490.85,125.26q-51,40.28-86.61,110.38A160.11,160.11,0,0,0,566.94,61.46,163.59,163.59,0,0,1,295.94,216,171.34,171.34,0,0,0,561.68,0q2.13,47-60.29,67.31-156.83,51.75-104.78,168,40.25-81.39,94.24-110"/></clipPath><clipPath id="clip-path-2" transform="translate(0 0)"><path class="cls-1" d="M281.42,131.53q2.47,23.13,34.46,28.35,80.43,13.55,63.7,74.19-25.72-36.73-54.23-46.68,27.93,15.84,50.53,47.41a79.08,79.08,0,0,1-61-14.66c-26-19.54-37-57.1-33.47-88.61"/></clipPath><clipPath id="clip-path-3" transform="translate(0 0)"><path class="cls-1" d="M349.17,63.8q-7,15.47,11.13,30.64,45.54,38.43,12.47,70.33-2.52-32.65-16.74-49.51,11.67,20.34,14.14,48.6a57.81,57.81,0,0,1-32.9-31.9c-9.11-22-2-49.67,11.9-68.16"/></clipPath></defs><title>Asset 2</title><g id="Layer_2" data-name="Layer 2"><g id="Layer_1-2" data-name="Layer 1"><path d="M99.66,430.84,59.1,365.18H46.5v57.69A17.1,17.1,0,0,1,29.41,440H0V275.88a17.09,17.09,0,0,1,17.1-17.1H46.5v71.9H59.1l41.42-63.22a19.2,19.2,0,0,1,16.06-8.68h39.73l-60,86.38L156.91,440H116A19.28,19.28,0,0,1,99.66,430.84Z" transform="translate(0 0)"/><path d="M256.51,368.07q0-16.05-1-22.25t-4.5-7.9q-3.45-1.71-12.45-1.72-9.3,0-13.35,2.77c-2.7,1.84-4.45,5-5.25,9.48s-1.2,11.81-1.2,22v52.43A17.1,17.1,0,0,1,201.62,440H175.21V261.39a17.1,17.1,0,0,1,17.1-17.1h26.4v76.9h2.4a30.86,30.86,0,0,1,15-13.56q9.6-4.08,23.1-4.08,17.4,0,26.11,5.4A26.58,26.58,0,0,1,297,324.88q3,10.53,3,28.71V440H278.6a22.09,22.09,0,0,1-22.09-22.09Z" transform="translate(0 0)"/><path d="M414.62,423.9h-2.4q-9.6,18.18-39.3,18.17-17.1,0-25.95-5.39a26.35,26.35,0,0,1-11.86-15.94q-3-10.53-3-29V305.66h26.41a17.1,17.1,0,0,1,17.1,17.09v54.8q0,15.81,1.2,22.12c.79,4.22,2.35,6.9,4.65,8s6.45,1.71,12.45,1.71,10.35-.92,13.05-2.77,4.45-5,5.25-9.61,1.2-11.85,1.2-21.86V305.66h26.41a17.09,17.09,0,0,1,17.09,17.09V422.87A17.1,17.1,0,0,1,439.83,440h-24Z" transform="translate(0 0)"/><path d="M489.62,305.66h25.19a17.09,17.09,0,0,1,17.07,16.19l.35,6.45h2.4q5.4-13.95,15.3-19.35t26.7-5.4v36.87q-16.5,0-25.8,3.95a25,25,0,0,0-13.5,13.43q-4.22,9.48-4.2,26.6V440H506.72a17.11,17.11,0,0,1-17.1-17.1Z" transform="translate(0 0)"/><path d="M598.38,432.46q-9.45-9.61-9.45-30.94,0-15.54,3.9-24.49a24,24,0,0,1,13.35-12.91q9.45-3.94,26.85-3.95,12.9,0,36.3,1.05V355.7q0-10.8-2.25-15.15T658.53,335q-6.3-1.18-21.9-1.19a387,387,0,0,0-39.3,1.85v-13a17.17,17.17,0,0,1,15.34-17,334.56,334.56,0,0,1,37.76-2.08q27,0,40.36,5.53t17.7,16.72q4.34,11.2,4.35,32.53V440H687.28a17.1,17.1,0,0,1-17-15.8h-2.4q-6,10.26-16.05,14.09a65.36,65.36,0,0,1-23.25,3.81Q607.83,442.07,598.38,432.46ZM659.58,411a12.33,12.33,0,0,0,6.45-4.74q3.3-5.26,3.3-17.91v-5.79h-23.1q-6.9,0-10.05,1.05a6.74,6.74,0,0,0-4.35,4.35q-1.2,3.29-1.2,10.13c0,4.05.4,7,1.2,9a7.33,7.33,0,0,0,4.95,4.08q3.75,1.19,11.85,1.19A36.5,36.5,0,0,0,659.58,411Z" transform="translate(0 0)"/><path d="M824.36,431.52l-26.62-43.43h-9v34.78a17.11,17.11,0,0,1-17.1,17.1h-26.4V261.39a17.1,17.1,0,0,1,17.09-17.1h26.41V358.06h9L824,316.35a22.92,22.92,0,0,1,19.38-10.69h33l-42.9,64.25L876.94,440H839.45A17.7,17.7,0,0,1,824.36,431.52Z" transform="translate(0 0)"/><path class="cls-2" d="M733.34,261.38v21.19H245.17a17.09,17.09,0,0,1-17.1-17.1V244.3H716.24A17.09,17.09,0,0,1,733.34,261.38Z" transform="translate(0 0)"/><path class="cls-3" d="M490.85,125.26q-51,40.28-86.61,110.38A160.11,160.11,0,0,0,566.94,61.46,163.59,163.59,0,0,1,295.94,216,171.34,171.34,0,0,0,561.68,0q2.13,47-60.29,67.31-156.83,51.75-104.78,168,40.25-81.39,94.24-110" transform="translate(0 0)"/><g class="cls-4"><rect class="cls-2" x="295.94" width="321.2" height="294.19"/></g><path class="cls-3" d="M281.42,131.53q2.47,23.13,34.46,28.35,80.43,13.55,63.7,74.19-25.72-36.73-54.23-46.68,27.93,15.84,50.53,47.41a79.08,79.08,0,0,1-61-14.66c-26-19.54-37-57.1-33.47-88.61" transform="translate(0 0)"/><g class="cls-5"><rect class="cls-2" x="277.87" y="131.53" width="112.86" height="107"/></g><path class="cls-3" d="M349.17,63.8q-7,15.47,11.13,30.64,45.54,38.43,12.47,70.33-2.52-32.65-16.74-49.51,11.67,20.34,14.14,48.6a57.81,57.81,0,0,1-32.9-31.9c-9.11-22-2-49.67,11.9-68.16" transform="translate(0 0)"/><g class="cls-6"><rect class="cls-2" x="328.16" y="63.8" width="66.65" height="100.98"/></g></g></g></svg>