<svg xmlns="http://www.w3.org/2000/svg" xmlns:xlink="http://www.w3.org/1999/xlink" viewBox="0 0 169.15 56.81"><defs><style>.cls-1{fill:url(#linear-gradient);}.cls-2{fill:#353537;}</style><linearGradient id="linear-gradient" y1="28.41" x2="50.07" y2="28.41" gradientUnits="userSpaceOnUse"><stop offset="0" stop-color="#f39528"/><stop offset="1" stop-color="#bb3827"/></linearGradient></defs><title>Asset 21</title><g id="Layer_2" data-name="Layer 2"><g id="Layer_1-2" data-name="Layer 1"><path class="cls-1" d="M48.1,23.26A25,25,0,0,0,34.78,9.94,24.29,24.29,0,0,0,30,8.46,16.67,16.67,0,0,1,34.1,1.92L36,0,33.34.52a21.78,21.78,0,0,0-4.56,1.61A19.18,19.18,0,0,0,21.3,8.25a24.47,24.47,0,0,0-6,1.69,25,25,0,0,0,0,46.13c.22.1.44.19.67.27.43.17.87.33,1.31.47L16,54.57h0a11,11,0,0,1-1.16-6.71,1.64,1.64,0,0,1,0-.23,7.1,7.1,0,0,0,2.29,2.49l.64.38.45-.59a5.42,5.42,0,0,0,.41-5.69h0a6.84,6.84,0,0,1-.63-6c.05-.14.1-.27.16-.4a7.24,7.24,0,0,0,1.67,2.53,10.51,10.51,0,0,1,2.23,3l1.2,3,.4-3.22a7.94,7.94,0,0,0-.6-4,9.37,9.37,0,0,1,1-7.28,10,10,0,0,1,4-3.39,8.61,8.61,0,0,0,.51,10.05,16.74,16.74,0,0,1,3.18,5.39l.76,2.62.83-2.6a4.12,4.12,0,0,1,1.18-1.83c-1.23,5.21.75,8.08.85,8.21l.57.8.69-.69c.1-.11.2-.21.29-.32A14.45,14.45,0,0,1,36,53.62a12.66,12.66,0,0,1-.95,1.83l-.42.67.11,0a24.71,24.71,0,0,0,6.75-4.24c.42-.36.82-.73,1.21-1.12A25.06,25.06,0,0,0,48.1,23.26ZM1.66,33A23.42,23.42,0,0,1,20.18,10.14c-1.73,3.5-2.09,7.63-1.05,12.31l0,.1,0,.09A9.69,9.69,0,0,1,20,25.18a32.67,32.67,0,0,0-2.47-2.85l0,0S13.93,19,15.2,15.72l1.39-3.5-2.73,2.6a13.47,13.47,0,0,0-3,4.66A12.79,12.79,0,0,0,10,24.72a14.57,14.57,0,0,0,2,6.6,7.55,7.55,0,0,1,.69,2.31,6.11,6.11,0,0,1-.74,4,10.65,10.65,0,0,1-1.44-1.47,9.26,9.26,0,0,1-2-5.88V26.06L6.9,30a25.57,25.57,0,0,0-1.58,9.45,19.6,19.6,0,0,0,2,8.44c.2.39.41.76.64,1.14A23.29,23.29,0,0,1,1.66,33ZM40.3,50.69a24.06,24.06,0,0,1-2.06,1.59,20.09,20.09,0,0,0,.58-5.72l-.16-4.75-1.47,4.52a9.28,9.28,0,0,1-.9,1.9A7.37,7.37,0,0,1,36,47.12a12.35,12.35,0,0,1,.73-6.45l.51-1.42-1.48.33a5.72,5.72,0,0,0-3,2.07,23.4,23.4,0,0,0-2.79-4.21l0,0a7.17,7.17,0,0,1-1.39-3.07c-.46-2.43.43-4.82,2.63-7.09L33,25.34l-2.62.52c-.21.05-5.06,1.06-7.66,5.05a11,11,0,0,0-1.22,8.64l0,.1,0,.06-.48-.52,0,0s-2-1.89-1.29-3.63L21.13,32l-2.73,2.6A8.53,8.53,0,0,0,17.22,45a3.86,3.86,0,0,1,.16,3.13,5.36,5.36,0,0,1-1.68-3.93V40l-1.6,3.91a15.09,15.09,0,0,0-.88,3.7,14,14,0,0,0,.31,5.12A16.84,16.84,0,0,1,7,39.42,24.05,24.05,0,0,1,7.47,34a11.1,11.1,0,0,0,1.81,3.23,10.46,10.46,0,0,0,2.48,2.27l.64.39.45-.6a7.78,7.78,0,0,0,1.51-6,8.71,8.71,0,0,0-.88-2.82h0a11.81,11.81,0,0,1-1.06-10.37,13.48,13.48,0,0,1,.92-1.9,10.49,10.49,0,0,0,3,5.26,18,18,0,0,1,3.79,5.11l1.2,3,.4-3.22a12.41,12.41,0,0,0-1-6.42c-1-4.75-.52-8.85,1.54-12.19,0-.09.11-.18.17-.27A12.55,12.55,0,0,1,23.59,8a18.15,18.15,0,0,1,5.86-4.35C30,3.4,30.52,3.17,31,3a16.39,16.39,0,0,0-2.68,5.19v0a15,15,0,0,0-.37,1.61A12.87,12.87,0,0,0,28,14.53a13.8,13.8,0,0,0,2.74,5.94c2.82,3.5,4.62,6.55,5.35,9.07l.75,2.62.84-2.6a7.17,7.17,0,0,1,2.89-3.87l.47-.28a25.06,25.06,0,0,0-1,5.14,19.27,19.27,0,0,0,.27,5.08A12,12,0,0,0,42,39.93l.57.8.69-.7A11.14,11.14,0,0,0,44.87,38,22.89,22.89,0,0,1,40.3,50.69Zm5-6.11a31.3,31.3,0,0,0,1.28-10.46l-.17-4.79L45,33.9A15.42,15.42,0,0,1,42.84,38,12.57,12.57,0,0,1,42,35.21a20.83,20.83,0,0,1,1.21-11l.51-1.43-1.48.33a8.55,8.55,0,0,0-2.49,1.14A8.77,8.77,0,0,0,37,27.12a35.05,35.05,0,0,0-5-7.7l0,0a12.39,12.39,0,0,1-2.37-5.18,11.26,11.26,0,0,1-.08-4.13,23.35,23.35,0,0,1,15.75,34.5Z"/><path class="cls-2" d="M61,36.17v-15H55.08v-2.8H70.23v2.8H64.32V36.17Z"/><path class="cls-2" d="M80.62,18.32H77.35l-8,17.86h3.41L74.5,32h8.93l1.78,4.14h3.47Zm-5,11.12L79,21.62l3.35,7.82Z"/><polygon class="cls-2" points="106.81 18.32 106.81 36.17 104.08 36.17 94.24 24.09 94.24 36.17 90.95 36.17 90.95 18.32 93.68 18.32 103.53 30.41 103.53 18.32 106.81 18.32"/><path class="cls-2" d="M111.61,36.17V18.32h7.8a11.08,11.08,0,0,1,5.11,1.12,8.42,8.42,0,0,1,3.41,3.11,8.76,8.76,0,0,1,1.23,4.7,8.79,8.79,0,0,1-1.23,4.68,8.38,8.38,0,0,1-3.41,3.12,11.08,11.08,0,0,1-5.11,1.12Zm3.32-2.8h4.33a7.39,7.39,0,0,0,3.48-.77A5.46,5.46,0,0,0,125,30.46a6.22,6.22,0,0,0,.81-3.21A6.2,6.2,0,0,0,125,24a5.5,5.5,0,0,0-2.27-2.13,7.39,7.39,0,0,0-3.48-.77h-4.33Z"/><path class="cls-2" d="M140.36,36.43a7.82,7.82,0,0,1-5.76-2.07,8.05,8.05,0,0,1-2.07-6V18.32h3.31v10a5.67,5.67,0,0,0,1.19,4,4.41,4.41,0,0,0,3.35,1.25,4.36,4.36,0,0,0,3.34-1.25,5.68,5.68,0,0,0,1.18-4V18.32h3.26V28.39a8,8,0,0,1-2.08,6A7.74,7.74,0,0,1,140.36,36.43Z"/><path class="cls-2" d="M164,30.33l.26-.11a5.79,5.79,0,0,0,2.61-2.17,6,6,0,0,0,.92-3.38,6.06,6.06,0,0,0-.92-3.39,5.85,5.85,0,0,0-2.61-2.2,9.82,9.82,0,0,0-4.07-.76H152.8V36.18h3.32V31h4l.7,0,3.64,5.23h3.57Zm-7.84-.51-.17-.18.17-.17Zm0-8.7H160a5.09,5.09,0,0,1,3.3.92,3.22,3.22,0,0,1,1.11,2.63,3.27,3.27,0,0,1-1.11,2.63,5,5,0,0,1-3.3.94h-3.88Z"/><path class="cls-2" d="M161.46,46.76s3.29.93,3.24,3.73l1-1.23S165.49,47.32,161.46,46.76Z"/><path class="cls-2" d="M165.71,43.68l-1-1.23c.05,2.8-3.24,3.74-3.24,3.74C165.49,45.62,165.71,43.68,165.71,43.68Z"/><path class="cls-2" d="M167.45,45.66l-.36.07a30.69,30.69,0,0,1-5.41.6l-6,.14,6,.14a30.69,30.69,0,0,1,5.41.6l.36.07,1.7-.81Z"/><path class="cls-2" d="M61.68,46.76s-3.29.93-3.24,3.73l-1-1.23S57.65,47.32,61.68,46.76Z"/><path class="cls-2" d="M57.43,43.68l1-1.23c0,2.8,3.24,3.74,3.24,3.74C57.65,45.62,57.43,43.68,57.43,43.68Z"/><path class="cls-2" d="M55.69,45.66l.36.07a30.69,30.69,0,0,0,5.41.6l6,.14-6,.14a30.69,30.69,0,0,0-5.41.6l-.36.07L54,46.47Z"/><path class="cls-2" d="M72.53,47.75h2.69v.74H71.64V43.71h3.49v.74h-2.6Zm-.07-2h2.37v.73H72.46Z"/><path class="cls-2" d="M75.57,48.49l1.6-2.09v.46l-1.53-2h1l1.07,1.44h-.36l1.08-1.44h.92l-1.54,2V46.4l1.6,2.09h-1L77.26,47l.36,0-1.11,1.48Z"/><path class="cls-2" d="M80,49.82v-5h.81v.86l0,1,.06,1v2.18Zm2-1.28a1.63,1.63,0,0,1-.81-.21,1.46,1.46,0,0,1-.58-.62,2.26,2.26,0,0,1-.21-1,2.35,2.35,0,0,1,.21-1.06,1.35,1.35,0,0,1,.57-.61,1.69,1.69,0,0,1,.82-.2A2,2,0,0,1,83,45a1.76,1.76,0,0,1,.65.65,2.14,2.14,0,0,1,0,2,1.79,1.79,0,0,1-.65.66A2,2,0,0,1,82,48.54Zm-.09-.73a1.12,1.12,0,0,0,.55-.14.92.92,0,0,0,.38-.4,1.16,1.16,0,0,0,.15-.6,1.21,1.21,0,0,0-.15-.62,1,1,0,0,0-.38-.39,1.12,1.12,0,0,0-.55-.14,1.16,1.16,0,0,0-.56.14,1,1,0,0,0-.39.39,1.32,1.32,0,0,0-.14.62,1.27,1.27,0,0,0,.14.6,1,1,0,0,0,.39.4A1.16,1.16,0,0,0,81.91,47.81Z"/><path class="cls-2" d="M85.72,48.54A1.81,1.81,0,0,1,85,48.4a1.22,1.22,0,0,1-.47-.39,1,1,0,0,1-.17-.57,1.06,1.06,0,0,1,.15-.55A1,1,0,0,1,85,46.5a2.4,2.4,0,0,1,.89-.14h1.06v.57h-1a.86.86,0,0,0-.59.14.47.47,0,0,0,0,.71.89.89,0,0,0,.52.14,1.07,1.07,0,0,0,.56-.15.75.75,0,0,0,.36-.42l.14.51a.93.93,0,0,1-.44.5A1.61,1.61,0,0,1,85.72,48.54Zm1.15,0v-.74l-.05-.16V46.3a.75.75,0,0,0-.23-.58,1,1,0,0,0-.68-.21,1.76,1.76,0,0,0-.6.1,1.53,1.53,0,0,0-.51.26l-.33-.62a2.17,2.17,0,0,1,.7-.34A3.34,3.34,0,0,1,86,44.8a1.83,1.83,0,0,1,1.23.38,1.46,1.46,0,0,1,.43,1.17v2.14Z"/><path class="cls-2" d="M88.77,48.49V44.84h.81v1l-.1-.3A1.23,1.23,0,0,1,90,45a1.79,1.79,0,0,1,.88-.19v.81h-.2a1,1,0,0,0-.77.29,1.14,1.14,0,0,0-.29.84v1.77Z"/><path class="cls-2" d="M92,44.24a.53.53,0,0,1-.39-.15.49.49,0,0,1-.15-.36.5.5,0,0,1,.15-.37.52.52,0,0,1,.39-.14.6.6,0,0,1,.4.13.49.49,0,0,1,.15.36.51.51,0,0,1-.55.53Zm-.43,4.25V44.84h.86v3.65Z"/><path class="cls-2" d="M94.68,48.54A1.74,1.74,0,0,1,94,48.4a1.25,1.25,0,0,1-.48-.39,1,1,0,0,1-.16-.57,1.15,1.15,0,0,1,.14-.55A1,1,0,0,1,94,46.5a2.38,2.38,0,0,1,.88-.14h1.06v.57h-1a.85.85,0,0,0-.59.14.47.47,0,0,0,0,.71.88.88,0,0,0,.51.14,1.1,1.1,0,0,0,.57-.15.83.83,0,0,0,.36-.42l.14.51a.93.93,0,0,1-.44.5A1.61,1.61,0,0,1,94.68,48.54Zm1.14,0v-.74l0-.16V46.3a.75.75,0,0,0-.23-.58,1,1,0,0,0-.68-.21,1.81,1.81,0,0,0-.61.1,1.58,1.58,0,0,0-.5.26l-.33-.62a2.08,2.08,0,0,1,.7-.34A3.34,3.34,0,0,1,95,44.8a1.83,1.83,0,0,1,1.23.38,1.46,1.46,0,0,1,.43,1.17v2.14Z"/><path class="cls-2" d="M99.79,44.8a1.8,1.8,0,0,1,.79.17,1.23,1.23,0,0,1,.54.52,1.89,1.89,0,0,1,.2.91v2.09h-.86v-2a1,1,0,0,0-.22-.73.86.86,0,0,0-.64-.24,1.2,1.2,0,0,0-.54.13.81.81,0,0,0-.35.36,1.28,1.28,0,0,0-.13.61v1.85h-.86V44.84h.82v1l-.15-.3A1.3,1.3,0,0,1,99,45,1.76,1.76,0,0,1,99.79,44.8Z"/><path class="cls-2" d="M104.09,48.54a2.15,2.15,0,0,1-1-.24,2,2,0,0,1-.7-.67,2,2,0,0,1,0-1.93,1.85,1.85,0,0,1,.7-.66,2.15,2.15,0,0,1,1-.24A2,2,0,0,1,105,45a1.38,1.38,0,0,1,.61.63L105,46a1,1,0,0,0-.4-.38,1.14,1.14,0,0,0-.51-.13,1.2,1.2,0,0,0-.57.14.92.92,0,0,0-.39.39,1.21,1.21,0,0,0-.15.62,1.2,1.2,0,0,0,.15.61.92.92,0,0,0,.39.39,1.2,1.2,0,0,0,.57.14,1,1,0,0,0,.51-.13,1,1,0,0,0,.4-.38l.65.38a1.45,1.45,0,0,1-.61.64A2.07,2.07,0,0,1,104.09,48.54Z"/><path class="cls-2" d="M108,48.54A2.24,2.24,0,0,1,107,48.3a1.8,1.8,0,0,1-1-1.63,1.91,1.91,0,0,1,.24-1,1.7,1.7,0,0,1,.67-.66,1.94,1.94,0,0,1,1-.24,2,2,0,0,1,1,.23,1.74,1.74,0,0,1,.66.66,2,2,0,0,1,.24,1,19.69,19.69,0,0,0,0,.25h-3v-.57h2.59l-.33.18a1.09,1.09,0,0,0-.13-.55,1,1,0,0,0-.37-.38,1.15,1.15,0,0,0-1.1,0A1,1,0,0,0,107,46a1.14,1.14,0,0,0-.13.57v.14a1.11,1.11,0,0,0,.15.58,1,1,0,0,0,.42.39,1.45,1.45,0,0,0,.63.13,1.64,1.64,0,0,0,.56-.09,1.28,1.28,0,0,0,.43-.3l.46.52a1.56,1.56,0,0,1-.62.44A2.08,2.08,0,0,1,108,48.54Z"/><path class="cls-2" d="M113.52,48.49v-4h-1.59v-.75H116v.75H114.4v4Z"/><path class="cls-2" d="M118.65,44.8a1.79,1.79,0,0,1,.78.17,1.23,1.23,0,0,1,.54.52,1.89,1.89,0,0,1,.2.91v2.09h-.85v-2a1,1,0,0,0-.23-.73.86.86,0,0,0-.64-.24,1.12,1.12,0,0,0-.53.13.78.78,0,0,0-.36.36,1.28,1.28,0,0,0-.13.61v1.85h-.85V43.42h.85v2.4l-.18-.3a1.23,1.23,0,0,1,.55-.53A1.8,1.8,0,0,1,118.65,44.8Z"/><path class="cls-2" d="M123,48.54a2.21,2.21,0,0,1-1.06-.24,1.84,1.84,0,0,1-.71-.67,1.91,1.91,0,0,1-.25-1,1.82,1.82,0,0,1,.25-1,1.74,1.74,0,0,1,.66-.66,2.1,2.1,0,0,1,1.93,0,1.72,1.72,0,0,1,.65.66,2,2,0,0,1,.24,1v.12s0,.09,0,.13h-3v-.57h2.59l-.34.18a.92.92,0,0,0-.13-.55,1,1,0,0,0-.37-.38,1.13,1.13,0,0,0-1.09,0,1,1,0,0,0-.37.38,1.14,1.14,0,0,0-.13.57v.14a1.11,1.11,0,0,0,.15.58,1,1,0,0,0,.42.39,1.39,1.39,0,0,0,.63.13,1.59,1.59,0,0,0,.55-.09,1.32,1.32,0,0,0,.44-.3l.46.52a1.63,1.63,0,0,1-.62.44A2.08,2.08,0,0,1,123,48.54Z"/><path class="cls-2" d="M129.72,48.56a2.66,2.66,0,0,1-1-.19,2.47,2.47,0,0,1-.82-.51,2.37,2.37,0,0,1-.54-.78,2.45,2.45,0,0,1-.19-1,2.41,2.41,0,0,1,.19-1,2.37,2.37,0,0,1,.54-.78,2.67,2.67,0,0,1,.82-.52,2.86,2.86,0,0,1,1-.18,2.8,2.8,0,0,1,1,.18,2.55,2.55,0,0,1,.82.52,2.23,2.23,0,0,1,.54.77,2.5,2.5,0,0,1,.19,1,2.45,2.45,0,0,1-.19,1,2.36,2.36,0,0,1-1.36,1.29A2.61,2.61,0,0,1,129.72,48.56Zm0-.78a1.76,1.76,0,0,0,.66-.12,1.55,1.55,0,0,0,.54-.36,1.58,1.58,0,0,0,.35-.53,1.86,1.86,0,0,0,.13-.67,1.78,1.78,0,0,0-.13-.67,1.62,1.62,0,0,0-.35-.54,1.53,1.53,0,0,0-.54-.35,1.9,1.9,0,0,0-1.33,0,1.53,1.53,0,0,0-.54.35,1.62,1.62,0,0,0-.35.54,1.78,1.78,0,0,0-.13.67,1.86,1.86,0,0,0,.13.67,1.58,1.58,0,0,0,.35.53,1.55,1.55,0,0,0,.54.36A1.78,1.78,0,0,0,129.72,47.78Zm1.56,1.76a2,2,0,0,1-.49-.06,2,2,0,0,1-.46-.19,3.41,3.41,0,0,1-.48-.35c-.16-.15-.34-.32-.54-.53l.94-.25a2.57,2.57,0,0,0,.37.41,1.5,1.5,0,0,0,.34.22.8.8,0,0,0,.34.07,1.09,1.09,0,0,0,.82-.38l.41.49A1.56,1.56,0,0,1,131.28,49.54Z"/><path class="cls-2" d="M134.7,48.54a1.77,1.77,0,0,1-.82-.18,1.2,1.2,0,0,1-.56-.53,1.87,1.87,0,0,1-.2-.9V44.84H134v2a1,1,0,0,0,.22.73.79.79,0,0,0,.63.25,1,1,0,0,0,.53-.13.82.82,0,0,0,.34-.37,1.21,1.21,0,0,0,.13-.6V44.84h.85v3.65h-.81v-1l.15.3a1.4,1.4,0,0,1-.54.54A1.73,1.73,0,0,1,134.7,48.54Z"/><path class="cls-2" d="M138.91,48.54a1.74,1.74,0,0,1-.72-.14,1.18,1.18,0,0,1-.48-.39,1,1,0,0,1-.16-.57,1,1,0,0,1,.14-.55,1.06,1.06,0,0,1,.48-.39,2.44,2.44,0,0,1,.89-.14h1.06v.57h-1a.83.83,0,0,0-.58.14.47.47,0,0,0,0,.71.84.84,0,0,0,.51.14,1.1,1.1,0,0,0,.57-.15.83.83,0,0,0,.36-.42l.14.51a.93.93,0,0,1-.44.5A1.61,1.61,0,0,1,138.91,48.54Zm1.14,0v-.74l0-.16V46.3a.75.75,0,0,0-.23-.58,1,1,0,0,0-.68-.21,1.81,1.81,0,0,0-.61.1,1.48,1.48,0,0,0-.5.26l-.34-.62a2.13,2.13,0,0,1,.71-.34,3.34,3.34,0,0,1,.84-.11,1.83,1.83,0,0,1,1.23.38,1.5,1.5,0,0,1,.43,1.17v2.14Z"/><path class="cls-2" d="M142,48.49V43.42h.86v5.07Z"/><path class="cls-2" d="M144.36,44.24a.57.57,0,0,1-.4-.15.49.49,0,0,1-.15-.36.5.5,0,0,1,.15-.37.65.65,0,0,1,.79,0,.49.49,0,0,1,.15.36.54.54,0,0,1-.15.38A.53.53,0,0,1,144.36,44.24Zm-.43,4.25V44.84h.85v3.65Z"/><path class="cls-2" d="M145.42,45.55v-.68h2.43v.68Zm1.86,3a1.3,1.3,0,0,1-.93-.31,1.22,1.22,0,0,1-.33-.92V44h.85v3.25a.57.57,0,0,0,.14.4.45.45,0,0,0,.37.14.76.76,0,0,0,.48-.15l.24.61a1.08,1.08,0,0,1-.37.19A1.74,1.74,0,0,1,147.28,48.54Z"/><path class="cls-2" d="M149,49.86a1.64,1.64,0,0,1-.53-.09,1.21,1.21,0,0,1-.45-.24l.35-.63a1,1,0,0,0,.62.25.63.63,0,0,0,.38-.11,1.15,1.15,0,0,0,.27-.39l.21-.48.07-.1,1.38-3.23h.82l-1.71,3.94a2.42,2.42,0,0,1-.38.65,1.18,1.18,0,0,1-.47.34A1.64,1.64,0,0,1,149,49.86Zm.75-1.24-1.64-3.78H149L150.36,48Z"/></g></g></svg>